# xmcd
#
# Track frame offsets: 
#        150
#        14022
#        31623
#        48170
#        60908
#        75353
#        89520
#        105353
#        122410
#        137181
#        153536
#        165229
#        180674
#        196119
#
# Disc length: 2819 seconds
#
# Revision: 0
# Processed by: cddbd v1.5.2PL0 Copyright (c) Steve Scherf et al.
# Submitted via: ExactAudioCopy v0.99pb4
#
DISCID=9a0b010e
DTITLE=Various Artist - All Star Country [CD1]
DYEAR=1988
DGENRE=Country
TTITLE0=Randy Travis - On the Other Hand
TTITLE1=Dan Seals and Marie Osmond - Meet me In Montana
TTITLE2=Gary Morris - I'll Never Stop Loving You
TTITLE3=The Forester Sisters - Mama's Never Seen Those Eyes
TTITLE4=Tanya Tucker - Just Another Love
TTITLE5=Don Williams - I'll Never Be In Love Again
TTITLE6=Glen Campbell - A Lady Like You
TTITLE7=Trio - To Know Him Is to Love Him
TTITLE8=Geroge Strait - Does Fort Worth Ever Cross Your Mind
TTITLE9=Southern Pacific - A Girl Like Emmylou
TTITLE10=Emmylou Harris - If I Could Only Win Your Love
TTITLE11=Schuyler, Knobloch and Overstreet - Baby's Got a New Baby
TTITLE12=Crystal Gayle and Gary Morris - Makin' Up for Lost Time
TTITLE13=John Conlee - As Long as I'm Rockin' With You
EXTD=
EXTT0=
EXTT1=
EXTT2=
EXTT3=
EXTT4=
EXTT5=
EXTT6=
EXTT7=
EXTT8=
EXTT9=
EXTT10=
EXTT11=
EXTT12=
EXTT13=
PLAYORDER=
